# xmcd
#
# Track frame offsets: 
#        150
#        21997
#        45086
#        55786
#        89866
#        110100
#        174857
#
# Disc length: 2596 seconds
#
# Revision: 0
# Processed by: cddbd v1.5.2PL0 Copyright (c) Steve Scherf et al.
# Submitted via: ExactAudioCopy v0.95b3
#
DISCID=540a2207
DTITLE=David Crosby  - More Buried Treasure [CD4] - 1971  FLAC
DYEAR=1900
DGENRE=
TTITLE0=Rounds (Eep Hour)
TTITLE1=Dope Rap
TTITLE2=Solo Piano
TTITLE3=Jam Slide
TTITLE4=Leather Winged Bat~aka Wild Turkey
TTITLE5=Jorma and Jerry's Jam #1
TTITLE6=The Wall Song
EXTD=
EXTT0=
EXTT1=
EXTT2=
EXTT3=
EXTT4=
EXTT5=
EXTT6=
PLAYORDER=
